<svg width="40" height="40" viewBox="0 0 40 40" xmlns="http://www.w3.org/2000/svg">
  <!-- Orange center circle -->
  <circle cx="20" cy="20" r="4" fill="#FF6B35"/>
  
  <!-- Purple petal-like shapes in circular pattern -->
  <path d="M 20 8 Q 24 12 24 16 Q 24 20 20 20 Q 16 20 16 16 Q 16 12 20 8 Z" fill="#8B5CF6" opacity="0.9"/>
  <path d="M 32 20 Q 28 24 24 24 Q 20 24 20 20 Q 20 16 24 16 Q 28 16 32 20 Z" fill="#8B5CF6" opacity="0.9"/>
  <path d="M 20 32 Q 16 28 16 24 Q 16 20 20 20 Q 24 20 24 24 Q 24 28 20 32 Z" fill="#8B5CF6" opacity="0.9"/>
  <path d="M 8 20 Q 12 16 16 16 Q 20 16 20 20 Q 20 24 16 24 Q 12 24 8 20 Z" fill="#8B5CF6" opacity="0.9"/>
  <path d="M 28 12 Q 30 16 28 20 Q 26 24 24 20 Q 22 16 24 12 Q 26 8 28 12 Z" fill="#8B5CF6" opacity="0.85"/>
  <path d="M 12 28 Q 16 30 20 28 Q 24 26 20 24 Q 16 22 12 24 Q 10 26 12 28 Z" fill="#8B5CF6" opacity="0.85"/>
</svg>

